<svg width="331" height="273" viewBox="0 0 331 273" fill="none" xmlns="http://www.w3.org/2000/svg">
<rect width="331" height="273" rx="5" fill="white"/>
<g clip-path="url(#clip0_1_7)">
<rect x="16" y="16" width="24" height="24" rx="12" fill="#EBEBF0"/>
<path d="M31.5 23.5L24.5 28L31.5 32.5" stroke="black"/>
<path d="M116.885 33.5V23.3182H123.626V25.093H119.038V27.5192H123.179V29.294H119.038V33.5H116.885ZM127.954 33.6491C127.169 33.6491 126.493 33.4901 125.926 33.1719C125.362 32.8504 124.928 32.3963 124.623 31.8097C124.318 31.2197 124.166 30.522 124.166 29.7166C124.166 28.9311 124.318 28.2417 124.623 27.6484C124.928 27.0552 125.357 26.5928 125.911 26.2614C126.468 25.9299 127.121 25.7642 127.87 25.7642C128.373 25.7642 128.842 25.8454 129.277 26.0078C129.714 26.1669 130.095 26.4072 130.42 26.7287C130.748 27.0502 131.003 27.4545 131.186 27.9418C131.368 28.4257 131.459 28.9924 131.459 29.642V30.2237H125.011V28.9112H129.466C129.466 28.6063 129.399 28.3362 129.267 28.1009C129.134 27.8655 128.95 27.6816 128.715 27.549C128.483 27.4131 128.213 27.3452 127.904 27.3452C127.583 27.3452 127.298 27.4197 127.049 27.5689C126.804 27.7147 126.612 27.9119 126.473 28.1605C126.333 28.4058 126.262 28.6792 126.259 28.9808V30.2287C126.259 30.6065 126.328 30.933 126.468 31.2081C126.61 31.4832 126.811 31.6953 127.069 31.8445C127.328 31.9936 127.634 32.0682 127.989 32.0682C128.224 32.0682 128.44 32.035 128.635 31.9688C128.831 31.9025 128.998 31.803 129.137 31.6705C129.277 31.5379 129.383 31.3755 129.456 31.1832L131.414 31.3125C131.315 31.7831 131.111 32.1941 130.803 32.5455C130.498 32.8935 130.104 33.1652 129.62 33.3608C129.139 33.553 128.584 33.6491 127.954 33.6491ZM132.881 33.5V23.3182H134.999V27.1463H135.064C135.156 26.9408 135.291 26.732 135.466 26.5199C135.645 26.3045 135.877 26.1255 136.162 25.983C136.451 25.8371 136.809 25.7642 137.236 25.7642C137.793 25.7642 138.307 25.91 138.777 26.2017C139.248 26.4901 139.624 26.9259 139.906 27.5092C140.188 28.0893 140.328 28.8168 140.328 29.6918C140.328 30.5436 140.191 31.2628 139.916 31.8494C139.644 32.4328 139.273 32.8752 138.802 33.1768C138.335 33.4751 137.811 33.6243 137.231 33.6243C136.82 33.6243 136.471 33.5563 136.182 33.4205C135.897 33.2846 135.663 33.1139 135.481 32.9084C135.299 32.6996 135.16 32.4891 135.064 32.277H134.969V33.5H132.881ZM134.954 29.6818C134.954 30.1359 135.017 30.532 135.143 30.87C135.269 31.2081 135.451 31.4716 135.69 31.6605C135.929 31.8461 136.219 31.9389 136.56 31.9389C136.905 31.9389 137.196 31.8445 137.435 31.6555C137.674 31.4633 137.854 31.1982 137.977 30.8601C138.103 30.5187 138.166 30.1259 138.166 29.6818C138.166 29.241 138.105 28.8532 137.982 28.5185C137.859 28.1837 137.679 27.9219 137.44 27.733C137.201 27.544 136.908 27.4496 136.56 27.4496C136.215 27.4496 135.924 27.5407 135.685 27.723C135.45 27.9053 135.269 28.1638 135.143 28.4986C135.017 28.8333 134.954 29.2277 134.954 29.6818ZM141.742 33.5V25.8636H143.795V27.196H143.874C144.014 26.7221 144.247 26.3641 144.575 26.1222C144.904 25.8769 145.281 25.7543 145.709 25.7543C145.815 25.7543 145.929 25.7609 146.052 25.7741C146.175 25.7874 146.282 25.8056 146.375 25.8288V27.7081C146.276 27.6783 146.138 27.6518 145.963 27.6286C145.787 27.6054 145.626 27.5938 145.48 27.5938C145.169 27.5938 144.89 27.6617 144.645 27.7976C144.403 27.9302 144.211 28.1158 144.068 28.3544C143.929 28.593 143.86 28.8681 143.86 29.1797V33.5H141.742ZM152.367 30.2486V25.8636H154.485V33.5H152.452V32.1129H152.372C152.2 32.5604 151.913 32.92 151.512 33.1918C151.114 33.4635 150.629 33.5994 150.055 33.5994C149.545 33.5994 149.096 33.4834 148.708 33.2514C148.32 33.0194 148.017 32.6896 147.798 32.2621C147.583 31.8345 147.473 31.3224 147.47 30.7259V25.8636H149.588V30.348C149.591 30.7988 149.712 31.1551 149.951 31.4169C150.19 31.6787 150.509 31.8097 150.911 31.8097C151.166 31.8097 151.404 31.7517 151.626 31.6357C151.848 31.5163 152.027 31.3407 152.163 31.1087C152.303 30.8767 152.371 30.59 152.367 30.2486ZM158.357 33.6442C157.869 33.6442 157.435 33.5597 157.054 33.3906C156.673 33.2183 156.371 32.9647 156.149 32.63C155.931 32.2919 155.821 31.871 155.821 31.3672C155.821 30.9429 155.899 30.5866 156.055 30.2983C156.211 30.0099 156.423 29.7779 156.691 29.6023C156.96 29.4266 157.265 29.294 157.606 29.2045C157.951 29.1151 158.312 29.0521 158.69 29.0156C159.134 28.9692 159.492 28.9261 159.764 28.8864C160.035 28.8433 160.233 28.7803 160.355 28.6974C160.478 28.6146 160.539 28.492 160.539 28.3295V28.2997C160.539 27.9848 160.44 27.7412 160.241 27.5689C160.045 27.3965 159.767 27.3104 159.406 27.3104C159.025 27.3104 158.721 27.3949 158.496 27.5639C158.271 27.7296 158.121 27.9384 158.048 28.1903L156.09 28.0312C156.189 27.5672 156.385 27.1662 156.676 26.8281C156.968 26.4867 157.344 26.2249 157.805 26.0426C158.269 25.857 158.806 25.7642 159.416 25.7642C159.84 25.7642 160.246 25.8139 160.634 25.9134C161.025 26.0128 161.371 26.1669 161.673 26.3757C161.978 26.5845 162.218 26.853 162.394 27.1811C162.569 27.5059 162.657 27.8954 162.657 28.3494V33.5H160.649V32.4411H160.589C160.466 32.6797 160.302 32.8902 160.097 33.0724C159.891 33.2514 159.644 33.3923 159.356 33.495C159.068 33.5945 158.735 33.6442 158.357 33.6442ZM158.963 32.1825C159.275 32.1825 159.55 32.1212 159.789 31.9986C160.027 31.8726 160.214 31.7036 160.35 31.4915C160.486 31.2794 160.554 31.0391 160.554 30.7706V29.9602C160.488 30.0033 160.397 30.0431 160.281 30.0795C160.168 30.1127 160.04 30.1442 159.898 30.174C159.755 30.2005 159.613 30.2254 159.47 30.2486C159.328 30.2685 159.199 30.2867 159.083 30.3033C158.834 30.3397 158.617 30.3977 158.431 30.4773C158.246 30.5568 158.102 30.6645 157.999 30.8004C157.896 30.933 157.845 31.0987 157.845 31.2976C157.845 31.5859 157.949 31.8063 158.158 31.9588C158.37 32.108 158.638 32.1825 158.963 32.1825ZM164.3 33.5V25.8636H166.354V27.196H166.433C166.572 26.7221 166.806 26.3641 167.134 26.1222C167.462 25.8769 167.84 25.7543 168.268 25.7543C168.374 25.7543 168.488 25.7609 168.611 25.7741C168.733 25.7874 168.841 25.8056 168.934 25.8288V27.7081C168.834 27.6783 168.697 27.6518 168.521 27.6286C168.345 27.6054 168.185 27.5938 168.039 27.5938C167.727 27.5938 167.449 27.6617 167.204 27.7976C166.962 27.9302 166.769 28.1158 166.627 28.3544C166.488 28.593 166.418 28.8681 166.418 29.1797V33.5H164.3ZM171.569 36.3636C171.3 36.3636 171.048 36.3421 170.813 36.299C170.581 36.2592 170.389 36.2079 170.236 36.1449L170.714 34.5639C170.962 34.6402 171.186 34.6816 171.385 34.6882C171.587 34.6948 171.761 34.6484 171.907 34.549C172.056 34.4496 172.177 34.2805 172.27 34.0419L172.394 33.7188L169.655 25.8636H171.882L173.463 31.4716H173.542L175.138 25.8636H177.381L174.412 34.3253C174.27 34.7363 174.076 35.0942 173.831 35.3991C173.589 35.7074 173.282 35.9444 172.911 36.1101C172.54 36.2791 172.092 36.3636 171.569 36.3636ZM181.685 33.5V31.9489L185.309 28.593C185.617 28.2947 185.876 28.0263 186.085 27.7876C186.297 27.549 186.457 27.3153 186.567 27.0866C186.676 26.8546 186.731 26.6044 186.731 26.3359C186.731 26.0376 186.663 25.7808 186.527 25.5653C186.391 25.3466 186.205 25.1792 185.97 25.0632C185.735 24.9439 185.468 24.8842 185.17 24.8842C184.858 24.8842 184.586 24.9472 184.354 25.0732C184.122 25.1991 183.943 25.3797 183.817 25.6151C183.692 25.8504 183.629 26.1304 183.629 26.4553H181.585C181.585 25.7891 181.736 25.2107 182.038 24.7202C182.339 24.2296 182.762 23.8501 183.305 23.5817C183.849 23.3132 184.475 23.179 185.185 23.179C185.914 23.179 186.549 23.3082 187.089 23.5668C187.632 23.822 188.055 24.1766 188.357 24.6307C188.658 25.0848 188.809 25.6051 188.809 26.1918C188.809 26.5762 188.733 26.9557 188.58 27.3303C188.431 27.7048 188.164 28.1207 187.78 28.5781C187.395 29.0322 186.853 29.5774 186.154 30.2138L184.668 31.6705V31.7401H188.943V33.5H181.685ZM194.495 33.7237C193.64 33.7204 192.904 33.5099 192.288 33.0923C191.675 32.6747 191.202 32.0698 190.871 31.2777C190.543 30.4856 190.38 29.5327 190.384 28.419C190.384 27.3087 190.548 26.3625 190.876 25.5803C191.207 24.7981 191.68 24.2031 192.293 23.7955C192.909 23.3845 193.643 23.179 194.495 23.179C195.347 23.179 196.079 23.3845 196.693 23.7955C197.309 24.2064 197.783 24.803 198.115 25.5852C198.446 26.3641 198.61 27.3087 198.607 28.419C198.607 29.536 198.441 30.4905 198.11 31.2827C197.781 32.0748 197.311 32.6797 196.698 33.0973C196.084 33.5149 195.35 33.7237 194.495 33.7237ZM194.495 31.9389C195.079 31.9389 195.544 31.6456 195.892 31.0589C196.24 30.4723 196.413 29.5923 196.409 28.419C196.409 27.6468 196.33 27.0038 196.171 26.4901C196.015 25.9763 195.793 25.5902 195.504 25.3317C195.219 25.0732 194.883 24.9439 194.495 24.9439C193.915 24.9439 193.451 25.2339 193.103 25.8139C192.755 26.3939 192.579 27.2623 192.576 28.419C192.576 29.2012 192.654 29.8542 192.81 30.3778C192.969 30.8982 193.193 31.2893 193.481 31.5511C193.769 31.8097 194.107 31.9389 194.495 31.9389ZM200.142 33.5V31.9489L203.766 28.593C204.074 28.2947 204.333 28.0263 204.542 27.7876C204.754 27.549 204.914 27.3153 205.024 27.0866C205.133 26.8546 205.188 26.6044 205.188 26.3359C205.188 26.0376 205.12 25.7808 204.984 25.5653C204.848 25.3466 204.663 25.1792 204.427 25.0632C204.192 24.9439 203.925 24.8842 203.627 24.8842C203.315 24.8842 203.043 24.9472 202.811 25.0732C202.579 25.1991 202.4 25.3797 202.275 25.6151C202.149 25.8504 202.086 26.1304 202.086 26.4553H200.042C200.042 25.7891 200.193 25.2107 200.495 24.7202C200.796 24.2296 201.219 23.8501 201.762 23.5817C202.306 23.3132 202.932 23.179 203.642 23.179C204.371 23.179 205.006 23.3082 205.546 23.5668C206.089 23.822 206.512 24.1766 206.814 24.6307C207.115 25.0848 207.266 25.6051 207.266 26.1918C207.266 26.5762 207.19 26.9557 207.037 27.3303C206.888 27.7048 206.621 28.1207 206.237 28.5781C205.852 29.0322 205.31 29.5774 204.611 30.2138L203.125 31.6705V31.7401H207.4V33.5H200.142ZM213.39 23.3182V33.5H211.237V25.3615H211.177L208.846 26.8232V24.9141L211.366 23.3182H213.39Z" fill="black"/>
<rect x="315" y="40" width="24" height="24" rx="12" transform="rotate(-180 315 40)" fill="#EBEBF0"/>
<path d="M299.5 32.5L306.5 28L299.5 23.5" stroke="black"/>
</g>
<g clip-path="url(#clip1_1_7)">
<g clip-path="url(#clip2_1_7)">
<path opacity="0.5" d="M17.0568 63.2727H18.3182L21.2841 70.517H21.3864L24.3523 63.2727H25.6136V72H24.625V65.3693H24.5398L21.8125 72H20.858L18.1307 65.3693H18.0455V72H17.0568V63.2727ZM35.0962 67.6364C35.0962 68.5568 34.93 69.3523 34.5977 70.0227C34.2653 70.6932 33.8093 71.2102 33.2298 71.5739C32.6502 71.9375 31.9883 72.1193 31.244 72.1193C30.4996 72.1193 29.8377 71.9375 29.2582 71.5739C28.6786 71.2102 28.2227 70.6932 27.8903 70.0227C27.5579 69.3523 27.3917 68.5568 27.3917 67.6364C27.3917 66.7159 27.5579 65.9205 27.8903 65.25C28.2227 64.5795 28.6786 64.0625 29.2582 63.6989C29.8377 63.3352 30.4996 63.1534 31.244 63.1534C31.9883 63.1534 32.6502 63.3352 33.2298 63.6989C33.8093 64.0625 34.2653 64.5795 34.5977 65.25C34.93 65.9205 35.0962 66.7159 35.0962 67.6364ZM34.0735 67.6364C34.0735 66.8807 33.9471 66.2429 33.6942 65.723C33.4442 65.2031 33.1048 64.8097 32.6758 64.5426C32.2496 64.2756 31.7724 64.142 31.244 64.142C30.7156 64.142 30.2369 64.2756 29.8079 64.5426C29.3817 64.8097 29.0423 65.2031 28.7894 65.723C28.5394 66.2429 28.4144 66.8807 28.4144 67.6364C28.4144 68.392 28.5394 69.0298 28.7894 69.5497C29.0423 70.0696 29.3817 70.4631 29.8079 70.7301C30.2369 70.9972 30.7156 71.1307 31.244 71.1307C31.7724 71.1307 32.2496 70.9972 32.6758 70.7301C33.1048 70.4631 33.4442 70.0696 33.6942 69.5497C33.9471 69.0298 34.0735 68.392 34.0735 67.6364ZM43.7937 63.2727V72H42.771L38.0153 65.1477H37.93V72H36.8732V63.2727H37.896L42.6687 70.142H42.7539V63.2727H43.7937Z" fill="black"/>
<path d="M31.9645 94.4909V105.4H30.6435V95.8758H30.5795L27.9162 97.6443V96.302L30.6435 94.4909H31.9645Z" fill="black"/>
<path d="M30.1236 141.949C29.392 141.949 28.7457 141.82 28.1847 141.56C27.6271 141.298 27.1921 140.937 26.8796 140.479C26.5671 140.017 26.4126 139.492 26.4162 138.902C26.4126 138.441 26.5032 138.014 26.6879 137.624C26.8725 137.23 27.1246 136.901 27.4442 136.638C27.7674 136.372 28.1278 136.203 28.5256 136.132V136.068C28.0036 135.934 27.5881 135.641 27.2791 135.19C26.9702 134.735 26.8175 134.218 26.821 133.639C26.8175 133.085 26.9577 132.59 27.2418 132.153C27.5259 131.717 27.9165 131.372 28.4137 131.12C28.9144 130.868 29.4844 130.742 30.1236 130.742C30.7557 130.742 31.3203 130.868 31.8175 131.12C32.3146 131.372 32.7053 131.717 32.9893 132.153C33.277 132.59 33.4226 133.085 33.4261 133.639C33.4226 134.218 33.2646 134.735 32.9521 135.19C32.6431 135.641 32.233 135.934 31.7216 136.068V136.132C32.1158 136.203 32.4709 136.372 32.7869 136.638C33.103 136.901 33.3551 137.23 33.5433 137.624C33.7315 138.014 33.8274 138.441 33.831 138.902C33.8274 139.492 33.6676 140.017 33.3516 140.479C33.0391 140.937 32.604 141.298 32.0465 141.56C31.4925 141.82 30.8516 141.949 30.1236 141.949ZM30.1236 140.777C30.6172 140.777 31.0433 140.697 31.402 140.538C31.7607 140.378 32.0376 140.152 32.233 139.861C32.4283 139.57 32.5277 139.229 32.5312 138.838C32.5277 138.426 32.4212 138.062 32.2116 137.746C32.0021 137.43 31.7163 137.182 31.354 137.001C30.9954 136.82 30.5852 136.729 30.1236 136.729C29.6584 136.729 29.2429 136.82 28.8771 137.001C28.5149 137.182 28.229 137.43 28.0195 137.746C27.8136 138.062 27.7124 138.426 27.7159 138.838C27.7124 139.229 27.8065 139.57 27.9982 139.861C28.1935 140.152 28.4723 140.378 28.8345 140.538C29.1967 140.697 29.6264 140.777 30.1236 140.777ZM30.1236 135.6C30.5142 135.6 30.8604 135.522 31.1623 135.365C31.4677 135.209 31.7074 134.991 31.8814 134.71C32.0554 134.43 32.1442 134.101 32.1477 133.725C32.1442 133.355 32.0572 133.034 31.8867 132.761C31.7163 132.484 31.4801 132.271 31.1783 132.121C30.8764 131.969 30.5249 131.892 30.1236 131.892C29.7152 131.892 29.3583 131.969 29.0529 132.121C28.7475 132.271 28.5114 132.484 28.3445 132.761C28.1776 133.034 28.0959 133.355 28.0994 133.725C28.0959 134.101 28.1793 134.43 28.3498 134.71C28.5238 134.991 28.7635 135.209 29.0689 135.365C29.3743 135.522 29.7259 135.6 30.1236 135.6Z" fill="black"/>
<path d="M26.9645 167.291V178.2H25.6435V168.676H25.5795L22.9162 170.444V169.102L25.6435 167.291H26.9645ZM33.511 178.349C32.886 178.349 32.3232 178.225 31.8224 177.976C31.3217 177.728 30.9205 177.387 30.6186 176.954C30.3168 176.52 30.1516 176.027 30.1232 175.473H31.4016C31.4513 175.966 31.6751 176.375 32.0728 176.698C32.4741 177.017 32.9535 177.177 33.511 177.177C33.9585 177.177 34.3562 177.073 34.7042 176.863C35.0558 176.653 35.331 176.366 35.5298 176C35.7322 175.631 35.8335 175.214 35.8335 174.748C35.8335 174.272 35.7287 173.848 35.5192 173.475C35.3132 173.099 35.0291 172.802 34.6669 172.586C34.3047 172.369 33.891 172.259 33.4258 172.255C33.092 172.252 32.7493 172.303 32.3977 172.41C32.0462 172.513 31.7567 172.646 31.5295 172.809L30.2937 172.66L30.9542 167.291H36.6218V168.463H32.0621L31.6786 171.68H31.7425C31.9663 171.503 32.2468 171.355 32.5842 171.238C32.9215 171.121 33.2731 171.062 33.6388 171.062C34.3065 171.062 34.9013 171.222 35.4233 171.542C35.9489 171.858 36.3608 172.291 36.6591 172.841C36.9609 173.392 37.1119 174.02 37.1119 174.727C37.1119 175.423 36.9556 176.044 36.6431 176.591C36.3342 177.135 35.908 177.564 35.3647 177.88C34.8214 178.193 34.2035 178.349 33.511 178.349Z" fill="black"/>
<path d="M22.1293 214.6V213.641L25.7301 209.699C26.1527 209.238 26.5007 208.837 26.7741 208.496C27.0476 208.151 27.25 207.828 27.3814 207.526C27.5163 207.221 27.5838 206.901 27.5838 206.567C27.5838 206.184 27.4915 205.852 27.3068 205.571C27.1257 205.291 26.8771 205.074 26.5611 204.921C26.245 204.769 25.8899 204.692 25.4957 204.692C25.0767 204.692 24.7109 204.779 24.3984 204.953C24.0895 205.124 23.8498 205.363 23.6793 205.672C23.5124 205.981 23.429 206.344 23.429 206.759H22.1719C22.1719 206.12 22.3192 205.559 22.614 205.076C22.9087 204.593 23.31 204.216 23.8178 203.947C24.3292 203.677 24.9027 203.542 25.5384 203.542C26.1776 203.542 26.744 203.677 27.2376 203.947C27.7312 204.216 28.1183 204.58 28.3988 205.039C28.6793 205.497 28.8196 206.006 28.8196 206.567C28.8196 206.969 28.7468 207.361 28.6012 207.745C28.4592 208.125 28.2106 208.549 27.8555 209.018C27.5039 209.483 27.0156 210.051 26.3906 210.722L23.9403 213.343V213.428H29.0114V214.6H22.1293ZM31.2113 214.6V213.641L34.8121 209.699C35.2347 209.238 35.5827 208.837 35.8562 208.496C36.1296 208.151 36.332 207.828 36.4634 207.526C36.5984 207.221 36.6658 206.901 36.6658 206.567C36.6658 206.184 36.5735 205.852 36.3888 205.571C36.2077 205.291 35.9592 205.074 35.6431 204.921C35.3271 204.769 34.9719 204.692 34.5778 204.692C34.1587 204.692 33.793 204.779 33.4805 204.953C33.1715 205.124 32.9318 205.363 32.7614 205.672C32.5945 205.981 32.511 206.344 32.511 206.759H31.2539C31.2539 206.12 31.4013 205.559 31.696 205.076C31.9908 204.593 32.392 204.216 32.8999 203.947C33.4112 203.677 33.9847 203.542 34.6204 203.542C35.2596 203.542 35.826 203.677 36.3196 203.947C36.8132 204.216 37.2003 204.58 37.4808 205.039C37.7614 205.497 37.9016 206.006 37.9016 206.567C37.9016 206.969 37.8288 207.361 37.6832 207.745C37.5412 208.125 37.2926 208.549 36.9375 209.018C36.5859 209.483 36.0977 210.051 35.4727 210.722L33.0224 213.343V213.428H38.0934V214.6H31.2113Z" fill="black"/>
<path d="M22.1293 251V250.041L25.7301 246.099C26.1527 245.638 26.5007 245.237 26.7741 244.896C27.0476 244.551 27.25 244.228 27.3814 243.926C27.5163 243.621 27.5838 243.301 27.5838 242.967C27.5838 242.584 27.4915 242.252 27.3068 241.971C27.1257 241.691 26.8771 241.474 26.5611 241.321C26.245 241.169 25.8899 241.092 25.4957 241.092C25.0767 241.092 24.7109 241.179 24.3984 241.353C24.0895 241.524 23.8498 241.763 23.6793 242.072C23.5124 242.381 23.429 242.744 23.429 243.159H22.1719C22.1719 242.52 22.3192 241.959 22.614 241.476C22.9087 240.993 23.31 240.616 23.8178 240.347C24.3292 240.077 24.9027 239.942 25.5384 239.942C26.1776 239.942 26.744 240.077 27.2376 240.347C27.7312 240.616 28.1183 240.98 28.3988 241.439C28.6793 241.897 28.8196 242.406 28.8196 242.967C28.8196 243.369 28.7468 243.761 28.6012 244.145C28.4592 244.525 28.2106 244.949 27.8555 245.418C27.5039 245.883 27.0156 246.451 26.3906 247.122L23.9403 249.743V249.828H29.0114V251H22.1293ZM34.6843 239.942C35.1317 239.945 35.5792 240.031 36.0266 240.197C36.4741 240.364 36.8825 240.641 37.2518 241.028C37.6211 241.412 37.9176 241.936 38.1413 242.6C38.3651 243.264 38.4769 244.097 38.4769 245.098C38.4769 246.067 38.3846 246.929 38.1999 247.681C38.0188 248.431 37.756 249.063 37.4116 249.578C37.0707 250.093 36.6552 250.483 36.1651 250.75C35.6786 251.016 35.1282 251.149 34.5138 251.149C33.9031 251.149 33.358 251.028 32.8786 250.787C32.4027 250.542 32.0121 250.203 31.7067 249.77C31.4048 249.333 31.2113 248.827 31.1261 248.251H32.4258C32.543 248.752 32.7756 249.166 33.1236 249.493C33.4751 249.816 33.9386 249.977 34.5138 249.977C35.3555 249.977 36.0195 249.61 36.506 248.875C36.9961 248.14 37.2411 247.101 37.2411 245.759H37.1559C36.957 246.057 36.7209 246.314 36.4474 246.531C36.174 246.748 35.8704 246.914 35.5366 247.032C35.2028 247.149 34.8477 247.207 34.4712 247.207C33.8462 247.207 33.2727 247.053 32.7507 246.744C32.2322 246.431 31.8168 246.004 31.5043 245.46C31.1953 244.913 31.0408 244.288 31.0408 243.585C31.0408 242.918 31.19 242.307 31.4883 241.753C31.7901 241.195 32.2127 240.751 32.756 240.421C33.3029 240.091 33.9457 239.931 34.6843 239.942ZM34.6843 241.114C34.2369 241.114 33.8338 241.225 33.4751 241.449C33.12 241.669 32.8377 241.968 32.6282 242.344C32.4222 242.717 32.3192 243.131 32.3192 243.585C32.3192 244.04 32.4187 244.453 32.6175 244.826C32.82 245.196 33.0952 245.49 33.4432 245.711C33.7947 245.927 34.1942 246.036 34.6417 246.036C34.979 246.036 35.2933 245.97 35.5845 245.838C35.8757 245.703 36.1296 245.521 36.3462 245.29C36.5664 245.055 36.7386 244.791 36.8629 244.496C36.9872 244.198 37.0494 243.887 37.0494 243.564C37.0494 243.138 36.9464 242.738 36.7404 242.365C36.538 241.993 36.2575 241.691 35.8988 241.46C35.5437 241.229 35.1388 241.114 34.6843 241.114Z" fill="black"/>
</g>
<g clip-path="url(#clip3_1_7)">
<path opacity="0.5" d="M66.2462 64.2102V63.2727H72.7917V64.2102H70.0473V72H68.9905V64.2102H66.2462ZM80.15 63.2727H81.2068V69.0511C81.2068 69.6477 81.0662 70.1804 80.7849 70.6491C80.5065 71.1151 80.113 71.483 79.6045 71.7528C79.096 72.0199 78.4994 72.1534 77.8147 72.1534C77.1301 72.1534 76.5335 72.0199 76.025 71.7528C75.5164 71.483 75.1216 71.1151 74.8403 70.6491C74.5619 70.1804 74.4227 69.6477 74.4227 69.0511V63.2727H75.4795V68.9659C75.4795 69.392 75.5733 69.7713 75.7608 70.1037C75.9483 70.4332 76.2153 70.6932 76.5619 70.8835C76.9113 71.071 77.3289 71.1648 77.8147 71.1648C78.3005 71.1648 78.7181 71.071 79.0676 70.8835C79.417 70.6932 79.6841 70.4332 79.8687 70.1037C80.0562 69.7713 80.15 69.392 80.15 68.9659V63.2727ZM83.3172 72V63.2727H88.5843V64.2102H84.374V67.1591H88.3115V68.0966H84.374V71.0625H88.6525V72H83.3172Z" fill="black"/>
<path d="M73.7959 105.4V104.441L77.3968 100.499C77.8194 100.038 78.1674 99.6365 78.4408 99.2956C78.7142 98.9511 78.9167 98.628 79.048 98.3261C79.183 98.0207 79.2505 97.7011 79.2505 97.3673C79.2505 96.9838 79.1581 96.6518 78.9735 96.3712C78.7924 96.0907 78.5438 95.8741 78.2277 95.7214C77.9117 95.5687 77.5566 95.4923 77.1624 95.4923C76.7434 95.4923 76.3776 95.5793 76.0651 95.7533C75.7561 95.9238 75.5164 96.1635 75.346 96.4724C75.1791 96.7814 75.0956 97.1436 75.0956 97.5591H73.8385C73.8385 96.9199 73.9859 96.3588 74.2806 95.8758C74.5754 95.3929 74.9767 95.0165 75.4845 94.7466C75.9958 94.4767 76.5694 94.3418 77.205 94.3418C77.8442 94.3418 78.4106 94.4767 78.9042 94.7466C79.3978 95.0165 79.7849 95.3805 80.0654 95.8386C80.346 96.2967 80.4863 96.8062 80.4863 97.3673C80.4863 97.7686 80.4135 98.161 80.2679 98.5445C80.1258 98.9245 79.8772 99.3489 79.5221 99.8176C79.1706 100.283 78.6823 100.851 78.0573 101.522L75.607 104.143V104.228H80.678V105.4H73.7959Z" fill="black"/>
<path d="M77.2689 130.742C77.7164 130.745 78.1638 130.831 78.6113 130.997C79.0587 131.164 79.4671 131.441 79.8364 131.828C80.2057 132.212 80.5022 132.736 80.726 133.4C80.9497 134.064 81.0615 134.897 81.0615 135.898C81.0615 136.867 80.9692 137.729 80.7846 138.481C80.6034 139.231 80.3407 139.863 79.9962 140.378C79.6553 140.893 79.2398 141.283 78.7498 141.55C78.2632 141.816 77.7128 141.949 77.0985 141.949C76.4877 141.949 75.9426 141.828 75.4632 141.587C74.9873 141.342 74.5967 141.003 74.2913 140.57C73.9895 140.133 73.7959 139.627 73.7107 139.051H75.0104C75.1276 139.552 75.3602 139.966 75.7082 140.293C76.0598 140.616 76.5232 140.777 77.0985 140.777C77.9401 140.777 78.6042 140.41 79.0907 139.675C79.5807 138.94 79.8257 137.901 79.8257 136.559H79.7405C79.5417 136.857 79.3055 137.114 79.0321 137.331C78.7586 137.548 78.455 137.714 78.1212 137.832C77.7874 137.949 77.4323 138.007 77.0559 138.007C76.4309 138.007 75.8574 137.853 75.3353 137.544C74.8169 137.231 74.4014 136.804 74.0889 136.26C73.7799 135.713 73.6255 135.088 73.6255 134.385C73.6255 133.718 73.7746 133.107 74.0729 132.553C74.3748 131.995 74.7973 131.551 75.3407 131.221C75.8875 130.891 76.5303 130.731 77.2689 130.742ZM77.2689 131.914C76.8215 131.914 76.4184 132.025 76.0598 132.249C75.7047 132.469 75.4223 132.768 75.2128 133.144C75.0069 133.517 74.9039 133.931 74.9039 134.385C74.9039 134.84 75.0033 135.253 75.2022 135.626C75.4046 135.996 75.6798 136.29 76.0278 136.511C76.3794 136.727 76.7789 136.835 77.2263 136.835C77.5637 136.835 77.8779 136.77 78.1691 136.638C78.4603 136.503 78.7142 136.321 78.9309 136.09C79.151 135.855 79.3233 135.591 79.4476 135.296C79.5718 134.998 79.634 134.687 79.634 134.364C79.634 133.938 79.531 133.538 79.325 133.165C79.1226 132.793 78.8421 132.491 78.4834 132.26C78.1283 132.029 77.7235 131.914 77.2689 131.914Z" fill="black"/>
<path d="M74.1311 167.291V178.2H72.8101V168.676H72.7462L70.0828 170.444V169.102L72.8101 167.291H74.1311ZM80.8907 178.349C80.4433 178.342 79.9958 178.257 79.5484 178.093C79.101 177.93 78.6926 177.655 78.3233 177.268C77.9539 176.877 77.6574 176.35 77.4337 175.686C77.21 175.018 77.0981 174.18 77.0981 173.172C77.0981 172.206 77.1887 171.35 77.3698 170.604C77.5509 169.855 77.8137 169.225 78.1581 168.713C78.5026 168.198 78.9181 167.808 79.4046 167.541C79.8946 167.275 80.4468 167.142 81.0612 167.142C81.672 167.142 82.2153 167.264 82.6912 167.509C83.1706 167.751 83.5612 168.088 83.863 168.521C84.1649 168.955 84.3602 169.454 84.449 170.018H83.1493C83.0285 169.528 82.7941 169.122 82.4461 168.798C82.0981 168.475 81.6365 168.314 81.0612 168.314C80.216 168.314 79.5502 168.681 79.0637 169.416C78.5807 170.151 78.3375 171.183 78.3339 172.511H78.4191C78.618 172.209 78.8542 171.952 79.1276 171.739C79.4046 171.522 79.71 171.355 80.0438 171.238C80.3776 171.121 80.7309 171.062 81.1038 171.062C81.7288 171.062 82.3005 171.218 82.819 171.531C83.3375 171.84 83.7529 172.268 84.0654 172.815C84.3779 173.358 84.5342 173.981 84.5342 174.684C84.5342 175.359 84.3833 175.977 84.0814 176.538C83.7796 177.096 83.3552 177.54 82.8083 177.87C82.265 178.196 81.6258 178.356 80.8907 178.349ZM80.8907 177.177C81.3382 177.177 81.7395 177.065 82.0946 176.842C82.4532 176.618 82.7355 176.318 82.9415 175.941C83.151 175.565 83.2558 175.146 83.2558 174.684C83.2558 174.233 83.1546 173.823 82.9522 173.454C82.7533 173.081 82.4781 172.785 82.1265 172.564C81.7785 172.344 81.3808 172.234 80.9333 172.234C80.596 172.234 80.2817 172.302 79.9905 172.437C79.6993 172.568 79.4436 172.749 79.2235 172.98C79.0069 173.211 78.8364 173.475 78.7121 173.774C78.5878 174.068 78.5257 174.379 78.5257 174.706C78.5257 175.139 78.6269 175.544 78.8293 175.92C79.0353 176.297 79.3158 176.6 79.6709 176.831C80.0296 177.062 80.4362 177.177 80.8907 177.177Z" fill="black"/>
<path d="M69.2959 214.6V213.641L72.8968 209.699C73.3194 209.238 73.6674 208.837 73.9408 208.496C74.2142 208.151 74.4167 207.828 74.548 207.526C74.683 207.221 74.7505 206.901 74.7505 206.567C74.7505 206.184 74.6581 205.852 74.4735 205.571C74.2924 205.291 74.0438 205.074 73.7277 204.921C73.4117 204.769 73.0566 204.692 72.6624 204.692C72.2434 204.692 71.8776 204.779 71.5651 204.953C71.2561 205.124 71.0164 205.363 70.846 205.672C70.6791 205.981 70.5956 206.344 70.5956 206.759H69.3385C69.3385 206.12 69.4859 205.559 69.7806 205.076C70.0754 204.593 70.4767 204.216 70.9845 203.947C71.4958 203.677 72.0694 203.542 72.705 203.542C73.3442 203.542 73.9106 203.677 74.4042 203.947C74.8978 204.216 75.2849 204.58 75.5654 205.039C75.846 205.497 75.9863 206.006 75.9863 206.567C75.9863 206.969 75.9135 207.361 75.7679 207.745C75.6258 208.125 75.3772 208.549 75.0221 209.018C74.6706 209.483 74.1823 210.051 73.5573 210.722L71.107 213.343V213.428H76.178V214.6H69.2959ZM82.064 214.749C81.3609 214.749 80.7341 214.628 80.1837 214.387C79.6368 214.145 79.2018 213.81 78.8787 213.38C78.5591 212.947 78.3851 212.444 78.3566 211.873H79.699C79.7274 212.224 79.8481 212.528 80.0612 212.784C80.2743 213.036 80.553 213.231 80.8975 213.37C81.2419 213.508 81.6237 213.577 82.0427 213.577C82.5115 213.577 82.927 213.496 83.2892 213.332C83.6514 213.169 83.9355 212.942 84.1414 212.65C84.3474 212.359 84.4504 212.022 84.4504 211.638C84.4504 211.237 84.351 210.884 84.1521 210.578C83.9532 210.269 83.662 210.028 83.2785 209.854C82.895 209.68 82.4262 209.593 81.8723 209.593H80.9987V208.421H81.8723C82.3055 208.421 82.6855 208.343 83.0122 208.187C83.3424 208.03 83.5999 207.81 83.7846 207.526C83.9728 207.242 84.0669 206.908 84.0669 206.525C84.0669 206.155 83.9852 205.834 83.8218 205.561C83.6585 205.287 83.4277 205.074 83.1294 204.921C82.8346 204.769 82.4866 204.692 82.0853 204.692C81.7089 204.692 81.3538 204.762 81.02 204.9C80.6897 205.035 80.4199 205.232 80.2103 205.491C80.0008 205.747 79.8872 206.056 79.8694 206.418H78.591C78.6123 205.846 78.7846 205.346 79.1077 204.916C79.4309 204.483 79.8534 204.145 80.3755 203.904C80.901 203.663 81.4781 203.542 82.1066 203.542C82.7814 203.542 83.3602 203.678 83.8431 203.952C84.3261 204.222 84.6972 204.579 84.9564 205.023C85.2157 205.466 85.3453 205.946 85.3453 206.461C85.3453 207.075 85.1837 207.599 84.8605 208.032C84.5409 208.465 84.1059 208.765 83.5555 208.932V209.018C84.2444 209.131 84.7824 209.424 85.1695 209.897C85.5566 210.365 85.7501 210.946 85.7501 211.638C85.7501 212.231 85.5885 212.764 85.2654 213.236C84.9458 213.705 84.509 214.074 83.955 214.344C83.401 214.614 82.7707 214.749 82.064 214.749Z" fill="black"/>
<path d="M72.982 251.149C72.2789 251.149 71.6521 251.028 71.1017 250.787C70.5548 250.545 70.1198 250.21 69.7966 249.78C69.477 249.347 69.303 248.844 69.2746 248.273H70.6169C70.6453 248.624 70.7661 248.928 70.9792 249.184C71.1922 249.436 71.471 249.631 71.8154 249.77C72.1599 249.908 72.5417 249.977 72.9607 249.977C73.4294 249.977 73.8449 249.896 74.2071 249.732C74.5694 249.569 74.8534 249.342 75.0594 249.05C75.2654 248.759 75.3684 248.422 75.3684 248.038C75.3684 247.637 75.2689 247.284 75.0701 246.978C74.8712 246.669 74.58 246.428 74.1965 246.254C73.813 246.08 73.3442 245.993 72.7902 245.993H71.9167V244.821H72.7902C73.2235 244.821 73.6034 244.743 73.9302 244.587C74.2604 244.43 74.5179 244.21 74.7025 243.926C74.8907 243.642 74.9848 243.308 74.9848 242.925C74.9848 242.555 74.9032 242.234 74.7398 241.961C74.5765 241.687 74.3456 241.474 74.0473 241.321C73.7526 241.169 73.4046 241.092 73.0033 241.092C72.6269 241.092 72.2718 241.162 71.938 241.3C71.6077 241.435 71.3378 241.632 71.1283 241.891C70.9188 242.147 70.8052 242.456 70.7874 242.818H69.509C69.5303 242.246 69.7025 241.746 70.0257 241.316C70.3488 240.883 70.7714 240.545 71.2934 240.304C71.819 240.062 72.3961 239.942 73.0246 239.942C73.6993 239.942 74.2782 240.078 74.7611 240.352C75.2441 240.622 75.6152 240.979 75.8744 241.423C76.1336 241.866 76.2632 242.346 76.2632 242.861C76.2632 243.475 76.1017 243.999 75.7785 244.432C75.4589 244.865 75.0239 245.165 74.4735 245.332V245.418C75.1624 245.531 75.7004 245.824 76.0875 246.297C76.4745 246.765 76.6681 247.346 76.6681 248.038C76.6681 248.631 76.5065 249.164 76.1833 249.636C75.8637 250.105 75.427 250.474 74.873 250.744C74.319 251.014 73.6887 251.149 72.982 251.149ZM82.4049 251.149C81.6024 251.149 80.9188 250.931 80.3542 250.494C79.7895 250.054 79.3581 249.416 79.0598 248.582C78.7615 247.744 78.6123 246.732 78.6123 245.545C78.6123 244.366 78.7615 243.36 79.0598 242.525C79.3616 241.687 79.7949 241.048 80.3595 240.608C80.9277 240.164 81.6095 239.942 82.4049 239.942C83.2004 239.942 83.8804 240.164 84.4451 240.608C85.0132 241.048 85.4465 241.687 85.7448 242.525C86.0466 243.36 86.1976 244.366 86.1976 245.545C86.1976 246.732 86.0484 247.744 85.7501 248.582C85.4518 249.416 85.0203 250.054 84.4557 250.494C83.8911 250.931 83.2075 251.149 82.4049 251.149ZM82.4049 249.977C83.2004 249.977 83.8183 249.594 84.2586 248.827C84.699 248.06 84.9191 246.966 84.9191 245.545C84.9191 244.601 84.8179 243.797 84.6155 243.132C84.4167 242.468 84.129 241.962 83.7526 241.614C83.3797 241.266 82.9305 241.092 82.4049 241.092C81.6166 241.092 81.0005 241.481 80.5566 242.259C80.1127 243.033 79.8907 244.129 79.8907 245.545C79.8907 246.49 79.9902 247.293 80.189 247.953C80.3879 248.614 80.6738 249.116 81.0466 249.461C81.423 249.805 81.8758 249.977 82.4049 249.977Z" fill="black"/>
</g>
<g clip-path="url(#clip4_1_7)">
<path opacity="0.5" d="M112.975 72L110.589 63.2727H111.663L113.487 70.3807H113.572L115.43 63.2727H116.623L118.481 70.3807H118.566L120.39 63.2727H121.464L119.078 72H117.987L116.061 65.0455H115.992L114.066 72H112.975ZM122.781 72V63.2727H128.048V64.2102H123.838V67.1591H127.775V68.0966H123.838V71.0625H128.116V72H122.781ZM132.646 72H129.953V63.2727H132.765C133.612 63.2727 134.336 63.4474 134.938 63.7969C135.541 64.1435 136.002 64.642 136.323 65.2926C136.644 65.9403 136.805 66.7159 136.805 67.6193C136.805 68.5284 136.643 69.3111 136.319 69.9673C135.995 70.6207 135.524 71.1236 134.904 71.4759C134.285 71.8253 133.532 72 132.646 72ZM131.009 71.0625H132.578C133.299 71.0625 133.897 70.9233 134.372 70.6449C134.846 70.3665 135.2 69.9702 135.433 69.456C135.666 68.9418 135.782 68.3295 135.782 67.6193C135.782 66.9148 135.667 66.3082 135.437 65.7997C135.207 65.2884 134.863 64.8963 134.406 64.6236C133.948 64.348 133.379 64.2102 132.697 64.2102H131.009V71.0625Z" fill="black"/>
<path d="M124.149 105.549C123.446 105.549 122.819 105.428 122.268 105.187C121.721 104.945 121.286 104.61 120.963 104.18C120.644 103.747 120.47 103.244 120.441 102.673H121.784C121.812 103.024 121.933 103.328 122.146 103.584C122.359 103.836 122.638 104.031 122.982 104.17C123.327 104.308 123.708 104.377 124.127 104.377C124.596 104.377 125.012 104.296 125.374 104.132C125.736 103.969 126.02 103.742 126.226 103.45C126.432 103.159 126.535 102.822 126.535 102.438C126.535 102.037 126.436 101.684 126.237 101.378C126.038 101.069 125.747 100.828 125.363 100.654C124.98 100.48 124.511 100.393 123.957 100.393H123.083V99.221H123.957C124.39 99.221 124.77 99.1429 125.097 98.9866C125.427 98.8304 125.685 98.6102 125.869 98.3261C126.057 98.042 126.151 97.7082 126.151 97.3247C126.151 96.9554 126.07 96.634 125.906 96.3606C125.743 96.0871 125.512 95.8741 125.214 95.7214C124.919 95.5687 124.571 95.4923 124.17 95.4923C123.794 95.4923 123.438 95.5616 123.105 95.7001C122.774 95.835 122.504 96.0321 122.295 96.2913C122.085 96.547 121.972 96.856 121.954 97.2182H120.676C120.697 96.6464 120.869 96.1457 121.192 95.716C121.515 95.2828 121.938 94.9454 122.46 94.704C122.986 94.4625 123.563 94.3418 124.191 94.3418C124.866 94.3418 125.445 94.4785 125.928 94.7519C126.411 95.0218 126.782 95.3787 127.041 95.8226C127.3 96.2665 127.43 96.7459 127.43 97.2608C127.43 97.8751 127.268 98.3989 126.945 98.8322C126.626 99.2654 126.191 99.5655 125.64 99.7324V99.8176C126.329 99.9312 126.867 100.224 127.254 100.697C127.641 101.165 127.835 101.746 127.835 102.438C127.835 103.031 127.673 103.564 127.35 104.036C127.03 104.505 126.594 104.874 126.04 105.144C125.486 105.414 124.855 105.549 124.149 105.549Z" fill="black"/>
<path d="M120.798 130.891V141.8H119.477V132.276H119.413L116.75 134.044V132.702L119.477 130.891H120.798ZM127.493 141.949C126.691 141.949 126.007 141.731 125.443 141.294C124.878 140.854 124.447 140.216 124.148 139.382C123.85 138.544 123.701 137.532 123.701 136.345C123.701 135.166 123.85 134.16 124.148 133.325C124.45 132.487 124.883 131.848 125.448 131.408C126.016 130.964 126.698 130.742 127.493 130.742C128.289 130.742 128.969 130.964 129.534 131.408C130.102 131.848 130.535 132.487 130.833 133.325C131.135 134.16 131.286 135.166 131.286 136.345C131.286 137.532 131.137 138.544 130.839 139.382C130.54 140.216 130.109 140.854 129.544 141.294C128.98 141.731 128.296 141.949 127.493 141.949ZM127.493 140.777C128.289 140.777 128.907 140.394 129.347 139.627C129.788 138.86 130.008 137.766 130.008 136.345C130.008 135.401 129.906 134.597 129.704 133.932C129.505 133.268 129.218 132.762 128.841 132.414C128.468 132.066 128.019 131.892 127.493 131.892C126.705 131.892 126.089 132.281 125.645 133.059C125.201 133.833 124.979 134.929 124.979 136.345C124.979 137.29 125.079 138.093 125.278 138.753C125.476 139.414 125.762 139.916 126.135 140.261C126.512 140.605 126.964 140.777 127.493 140.777Z" fill="black"/>
<path d="M121.298 167.291V178.2H119.977V168.676H119.913L117.25 170.444V169.102L119.977 167.291H121.298ZM124.776 178.2L129.655 168.548V168.463H124.03V167.291H131.019V168.527L126.161 178.2H124.776Z" fill="black"/>
<path d="M115.963 214.6V213.641L119.563 209.699C119.986 209.238 120.334 208.837 120.607 208.496C120.881 208.151 121.083 207.828 121.215 207.526C121.35 207.221 121.417 206.901 121.417 206.567C121.417 206.184 121.325 205.852 121.14 205.571C120.959 205.291 120.71 205.074 120.394 204.921C120.078 204.769 119.723 204.692 119.329 204.692C118.91 204.692 118.544 204.779 118.232 204.953C117.923 205.124 117.683 205.363 117.513 205.672C117.346 205.981 117.262 206.344 117.262 206.759H116.005C116.005 206.12 116.153 205.559 116.447 205.076C116.742 204.593 117.143 204.216 117.651 203.947C118.163 203.677 118.736 203.542 119.372 203.542C120.011 203.542 120.577 203.677 121.071 203.947C121.564 204.216 121.952 204.58 122.232 205.039C122.513 205.497 122.653 206.006 122.653 206.567C122.653 206.969 122.58 207.361 122.435 207.745C122.292 208.125 122.044 208.549 121.689 209.018C121.337 209.483 120.849 210.051 120.224 210.722L117.774 213.343V213.428H122.845V214.6H115.963ZM124.555 212.363V211.276L129.349 203.691H130.137V205.374H129.604L125.982 211.106V211.191H132.438V212.363H124.555ZM129.689 214.6V212.033V211.526V203.691H130.947V214.6H129.689Z" fill="black"/>
<path d="M120.649 251.149C119.946 251.149 119.319 251.028 118.768 250.787C118.221 250.545 117.786 250.21 117.463 249.78C117.144 249.347 116.97 248.844 116.941 248.273H118.284C118.312 248.624 118.433 248.928 118.646 249.184C118.859 249.436 119.138 249.631 119.482 249.77C119.827 249.908 120.208 249.977 120.627 249.977C121.096 249.977 121.512 249.896 121.874 249.732C122.236 249.569 122.52 249.342 122.726 249.05C122.932 248.759 123.035 248.422 123.035 248.038C123.035 247.637 122.936 247.284 122.737 246.978C122.538 246.669 122.247 246.428 121.863 246.254C121.48 246.08 121.011 245.993 120.457 245.993H119.583V244.821H120.457C120.89 244.821 121.27 244.743 121.597 244.587C121.927 244.43 122.185 244.21 122.369 243.926C122.557 243.642 122.651 243.308 122.651 242.925C122.651 242.555 122.57 242.234 122.406 241.961C122.243 241.687 122.012 241.474 121.714 241.321C121.419 241.169 121.071 241.092 120.67 241.092C120.294 241.092 119.938 241.162 119.605 241.3C119.274 241.435 119.004 241.632 118.795 241.891C118.585 242.147 118.472 242.456 118.454 242.818H117.176C117.197 242.246 117.369 241.746 117.692 241.316C118.015 240.883 118.438 240.545 118.96 240.304C119.486 240.062 120.063 239.942 120.691 239.942C121.366 239.942 121.945 240.078 122.428 240.352C122.911 240.622 123.282 240.979 123.541 241.423C123.8 241.866 123.93 242.346 123.93 242.861C123.93 243.475 123.768 243.999 123.445 244.432C123.126 244.865 122.691 245.165 122.14 245.332V245.418C122.829 245.531 123.367 245.824 123.754 246.297C124.141 246.765 124.335 247.346 124.335 248.038C124.335 248.631 124.173 249.164 123.85 249.636C123.53 250.105 123.094 250.474 122.54 250.744C121.986 251.014 121.355 251.149 120.649 251.149ZM130.349 240.091V251H129.028V241.476H128.964L126.3 243.244V241.902L129.028 240.091H130.349Z" fill="black"/>
</g>
<g clip-path="url(#clip5_1_7)">
<path opacity="0.5" d="M159.58 64.2102V63.2727H166.125V64.2102H163.381V72H162.324V64.2102H159.58ZM167.756 72V63.2727H168.813V67.1591H173.466V63.2727H174.523V72H173.466V68.0966H168.813V72H167.756ZM182.366 63.2727H183.423V69.0511C183.423 69.6477 183.282 70.1804 183.001 70.6491C182.723 71.1151 182.329 71.483 181.821 71.7528C181.312 72.0199 180.716 72.1534 180.031 72.1534C179.346 72.1534 178.75 72.0199 178.241 71.7528C177.733 71.483 177.338 71.1151 177.056 70.6491C176.778 70.1804 176.639 69.6477 176.639 69.0511V63.2727H177.696V68.9659C177.696 69.392 177.789 69.7713 177.977 70.1037C178.164 70.4332 178.431 70.6932 178.778 70.8835C179.127 71.071 179.545 71.1648 180.031 71.1648C180.517 71.1648 180.934 71.071 181.284 70.8835C181.633 70.6932 181.9 70.4332 182.085 70.1037C182.272 69.7713 182.366 69.392 182.366 68.9659V63.2727Z" fill="black"/>
<path d="M167.874 103.563V102.476L172.668 94.8909H173.456V96.5741H172.923L169.301 102.306V102.391H175.757V103.563H167.874ZM173.009 105.8V103.233V102.726V94.8909H174.266V105.8H173.009Z" fill="black"/>
<path d="M169.964 131.691V142.6H168.643V133.076H168.58L165.916 134.844V133.502L168.643 131.691H169.964ZM176.937 131.691V142.6H175.616V133.076H175.552L172.889 134.844V133.502L175.616 131.691H176.937Z" fill="black"/>
<path d="M168.464 168.491V179.4H167.143V169.876H167.08L164.416 171.644V170.302L167.143 168.491H168.464ZM175.096 179.549C174.365 179.549 173.718 179.42 173.157 179.16C172.6 178.898 172.165 178.537 171.852 178.079C171.54 177.617 171.385 177.092 171.389 176.502C171.385 176.041 171.476 175.614 171.661 175.224C171.845 174.83 172.097 174.501 172.417 174.238C172.74 173.972 173.1 173.803 173.498 173.732V173.668C172.976 173.534 172.561 173.241 172.252 172.79C171.943 172.335 171.79 171.818 171.794 171.239C171.79 170.686 171.93 170.19 172.214 169.753C172.499 169.317 172.889 168.972 173.386 168.72C173.887 168.468 174.457 168.342 175.096 168.342C175.728 168.342 176.293 168.468 176.79 168.72C177.287 168.972 177.678 169.317 177.962 169.753C178.25 170.19 178.395 170.686 178.399 171.239C178.395 171.818 178.237 172.335 177.925 172.79C177.616 173.241 177.206 173.534 176.694 173.668V173.732C177.088 173.803 177.444 173.972 177.76 174.238C178.076 174.501 178.328 174.83 178.516 175.224C178.704 175.614 178.8 176.041 178.804 176.502C178.8 177.092 178.64 177.617 178.324 178.079C178.012 178.537 177.577 178.898 177.019 179.16C176.465 179.42 175.824 179.549 175.096 179.549ZM175.096 178.377C175.59 178.377 176.016 178.297 176.375 178.138C176.733 177.978 177.01 177.752 177.206 177.461C177.401 177.17 177.5 176.829 177.504 176.438C177.5 176.026 177.394 175.662 177.184 175.346C176.975 175.03 176.689 174.782 176.327 174.601C175.968 174.42 175.558 174.329 175.096 174.329C174.631 174.329 174.216 174.42 173.85 174.601C173.488 174.782 173.202 175.03 172.992 175.346C172.786 175.662 172.685 176.026 172.689 176.438C172.685 176.829 172.779 177.17 172.971 177.461C173.166 177.752 173.445 177.978 173.807 178.138C174.169 178.297 174.599 178.377 175.096 178.377ZM175.096 173.2C175.487 173.2 175.833 173.122 176.135 172.965C176.44 172.809 176.68 172.591 176.854 172.31C177.028 172.03 177.117 171.701 177.12 171.325C177.117 170.955 177.03 170.634 176.859 170.361C176.689 170.084 176.453 169.871 176.151 169.721C175.849 169.569 175.498 169.492 175.096 169.492C174.688 169.492 174.331 169.569 174.026 169.721C173.72 169.871 173.484 170.084 173.317 170.361C173.15 170.634 173.069 170.955 173.072 171.325C173.069 171.701 173.152 172.03 173.322 172.31C173.496 172.591 173.736 172.809 174.042 172.965C174.347 173.122 174.699 173.2 175.096 173.2Z" fill="black"/>
<path d="M163.629 216.2V215.241L167.23 211.299C167.653 210.838 168.001 210.437 168.274 210.096C168.548 209.751 168.75 209.428 168.881 209.126C169.016 208.821 169.084 208.501 169.084 208.167C169.084 207.784 168.991 207.452 168.807 207.171C168.626 206.891 168.377 206.674 168.061 206.521C167.745 206.369 167.39 206.292 166.996 206.292C166.577 206.292 166.211 206.379 165.898 206.553C165.589 206.724 165.35 206.963 165.179 207.272C165.012 207.581 164.929 207.944 164.929 208.359H163.672C163.672 207.72 163.819 207.159 164.114 206.676C164.409 206.193 164.81 205.816 165.318 205.547C165.829 205.277 166.403 205.142 167.038 205.142C167.678 205.142 168.244 205.277 168.738 205.547C169.231 205.816 169.618 206.18 169.899 206.639C170.179 207.097 170.32 207.606 170.32 208.167C170.32 208.569 170.247 208.961 170.101 209.345C169.959 209.724 169.711 210.149 169.355 210.618C169.004 211.083 168.516 211.651 167.891 212.322L165.44 214.943V215.028H170.511V216.2H163.629ZM176.12 216.349C175.495 216.349 174.933 216.225 174.432 215.976C173.931 215.728 173.53 215.387 173.228 214.954C172.926 214.52 172.761 214.027 172.733 213.473H174.011C174.061 213.966 174.284 214.375 174.682 214.698C175.083 215.017 175.563 215.177 176.12 215.177C176.568 215.177 176.966 215.073 177.314 214.863C177.665 214.653 177.94 214.366 178.139 214C178.342 213.631 178.443 213.213 178.443 212.748C178.443 212.272 178.338 211.848 178.129 211.475C177.923 211.099 177.638 210.802 177.276 210.586C176.914 210.369 176.5 210.259 176.035 210.255C175.701 210.252 175.359 210.303 175.007 210.41C174.656 210.513 174.366 210.646 174.139 210.809L172.903 210.66L173.564 205.291H179.231V206.463H174.672L174.288 209.68H174.352C174.576 209.503 174.856 209.355 175.194 209.238C175.531 209.121 175.882 209.062 176.248 209.062C176.916 209.062 177.511 209.222 178.033 209.542C178.558 209.858 178.97 210.291 179.268 210.841C179.57 211.392 179.721 212.02 179.721 212.727C179.721 213.423 179.565 214.044 179.252 214.591C178.944 215.135 178.517 215.564 177.974 215.88C177.431 216.193 176.813 216.349 176.12 216.349Z" fill="black"/>
<path opacity="0.5" d="M173.134 241.818V252H171.901V243.111H171.841L169.355 244.761V243.509L171.901 241.818H173.134Z" fill="black"/>
</g>
<g clip-path="url(#clip6_1_7)">
<path opacity="0.5" d="M207.224 72V63.2727H212.456V64.2102H208.28V67.1591H212.064V68.0966H208.28V72H207.224ZM214.266 72V63.2727H217.215C217.897 63.2727 218.457 63.3892 218.894 63.6222C219.332 63.8523 219.656 64.169 219.866 64.5724C220.076 64.9759 220.181 65.4347 220.181 65.9489C220.181 66.4631 220.076 66.919 219.866 67.3168C219.656 67.7145 219.333 68.027 218.899 68.2543C218.464 68.4787 217.909 68.5909 217.232 68.5909H214.846V67.6364H217.198C217.664 67.6364 218.039 67.5682 218.323 67.4318C218.61 67.2955 218.818 67.1023 218.945 66.8523C219.076 66.5994 219.141 66.2983 219.141 65.9489C219.141 65.5994 219.076 65.294 218.945 65.0327C218.815 64.7713 218.606 64.5696 218.319 64.4276C218.032 64.2827 217.653 64.2102 217.181 64.2102H215.323V72H214.266ZM218.374 68.0795L220.522 72H219.295L217.181 68.0795H218.374ZM222.999 63.2727V72H221.942V63.2727H222.999Z" fill="black"/>
<path d="M214.705 105.949C214.08 105.949 213.517 105.825 213.016 105.576C212.516 105.328 212.114 104.987 211.813 104.554C211.511 104.12 211.346 103.627 211.317 103.073H212.596C212.645 103.566 212.869 103.975 213.267 104.298C213.668 104.617 214.148 104.777 214.705 104.777C215.152 104.777 215.55 104.673 215.898 104.463C216.25 104.253 216.525 103.966 216.724 103.6C216.926 103.231 217.027 102.813 217.027 102.348C217.027 101.872 216.923 101.448 216.713 101.075C216.507 100.699 216.223 100.402 215.861 100.186C215.499 99.969 215.085 99.8589 214.62 99.8554C214.286 99.8518 213.943 99.9033 213.592 100.01C213.24 100.113 212.951 100.246 212.724 100.409L211.488 100.26L212.148 94.8909H217.816V96.0628H213.256L212.873 99.2801H212.937C213.16 99.1025 213.441 98.9552 213.778 98.838C214.116 98.7208 214.467 98.6622 214.833 98.6622C215.5 98.6622 216.095 98.822 216.617 99.1416C217.143 99.4577 217.555 99.8909 217.853 100.441C218.155 100.992 218.306 101.62 218.306 102.327C218.306 103.023 218.15 103.644 217.837 104.191C217.528 104.735 217.102 105.164 216.559 105.48C216.015 105.793 215.398 105.949 214.705 105.949Z" fill="black"/>
<path d="M211.631 131.691V142.6H210.31V133.076H210.246L207.583 134.844V133.502L210.31 131.691H211.631ZM214.769 142.6V141.641L218.369 137.699C218.792 137.238 219.14 136.837 219.413 136.496C219.687 136.151 219.889 135.828 220.021 135.526C220.156 135.221 220.223 134.901 220.223 134.567C220.223 134.184 220.131 133.852 219.946 133.571C219.765 133.291 219.516 133.074 219.2 132.921C218.884 132.769 218.529 132.692 218.135 132.692C217.716 132.692 217.35 132.779 217.038 132.953C216.729 133.124 216.489 133.363 216.319 133.672C216.152 133.981 216.068 134.344 216.068 134.759H214.811C214.811 134.12 214.959 133.559 215.253 133.076C215.548 132.593 215.949 132.216 216.457 131.947C216.969 131.677 217.542 131.542 218.178 131.542C218.817 131.542 219.383 131.677 219.877 131.947C220.371 132.216 220.758 132.58 221.038 133.039C221.319 133.497 221.459 134.006 221.459 134.567C221.459 134.969 221.386 135.361 221.241 135.745C221.099 136.125 220.85 136.549 220.495 137.018C220.143 137.483 219.655 138.051 219.03 138.722L216.58 141.343V141.428H221.651V142.6H214.769Z" fill="black"/>
<path d="M211.631 168.491V179.4H210.31V169.876H210.246L207.583 171.644V170.302L210.31 168.491H211.631ZM218.242 168.342C218.689 168.345 219.137 168.431 219.584 168.597C220.031 168.764 220.44 169.041 220.809 169.428C221.178 169.812 221.475 170.336 221.699 171C221.922 171.664 222.034 172.497 222.034 173.498C222.034 174.467 221.942 175.329 221.757 176.081C221.576 176.831 221.313 177.463 220.969 177.978C220.628 178.493 220.212 178.883 219.722 179.15C219.236 179.416 218.686 179.549 218.071 179.549C217.46 179.549 216.915 179.428 216.436 179.187C215.96 178.942 215.569 178.603 215.264 178.17C214.962 177.733 214.769 177.227 214.683 176.651H215.983C216.1 177.152 216.333 177.566 216.681 177.893C217.032 178.216 217.496 178.377 218.071 178.377C218.913 178.377 219.577 178.01 220.063 177.275C220.553 176.54 220.798 175.501 220.798 174.159H220.713C220.514 174.457 220.278 174.714 220.005 174.931C219.731 175.148 219.428 175.314 219.094 175.432C218.76 175.549 218.405 175.607 218.029 175.607C217.404 175.607 216.83 175.453 216.308 175.144C215.79 174.831 215.374 174.404 215.062 173.86C214.753 173.313 214.598 172.688 214.598 171.985C214.598 171.318 214.747 170.707 215.046 170.153C215.347 169.595 215.77 169.151 216.313 168.821C216.86 168.491 217.503 168.331 218.242 168.342ZM218.242 169.514C217.794 169.514 217.391 169.625 217.032 169.849C216.677 170.069 216.395 170.368 216.186 170.744C215.98 171.117 215.877 171.531 215.877 171.985C215.877 172.44 215.976 172.853 216.175 173.226C216.377 173.596 216.652 173.89 217 174.111C217.352 174.327 217.752 174.436 218.199 174.436C218.536 174.436 218.851 174.37 219.142 174.238C219.433 174.103 219.687 173.921 219.904 173.69C220.124 173.455 220.296 173.191 220.42 172.896C220.545 172.598 220.607 172.287 220.607 171.964C220.607 171.538 220.504 171.138 220.298 170.765C220.095 170.393 219.815 170.091 219.456 169.86C219.101 169.629 218.696 169.514 218.242 169.514Z" fill="black"/>
<path d="M206.796 216.2V215.241L210.397 211.299C210.819 210.838 211.167 210.437 211.441 210.096C211.714 209.751 211.917 209.428 212.048 209.126C212.183 208.821 212.25 208.501 212.25 208.167C212.25 207.784 212.158 207.452 211.974 207.171C211.792 206.891 211.544 206.674 211.228 206.521C210.912 206.369 210.557 206.292 210.162 206.292C209.743 206.292 209.378 206.379 209.065 206.553C208.756 206.724 208.516 206.963 208.346 207.272C208.179 207.581 208.096 207.944 208.096 208.359H206.839C206.839 207.72 206.986 207.159 207.281 206.676C207.575 206.193 207.977 205.816 208.485 205.547C208.996 205.277 209.569 205.142 210.205 205.142C210.844 205.142 211.411 205.277 211.904 205.547C212.398 205.816 212.785 206.18 213.065 206.639C213.346 207.097 213.486 207.606 213.486 208.167C213.486 208.569 213.413 208.961 213.268 209.345C213.126 209.724 212.877 210.149 212.522 210.618C212.171 211.083 211.682 211.651 211.057 212.322L208.607 214.943V215.028H213.678V216.2H206.796ZM219.5 216.349C219.053 216.342 218.605 216.257 218.158 216.093C217.71 215.93 217.302 215.655 216.933 215.268C216.563 214.877 216.267 214.35 216.043 213.686C215.819 213.018 215.708 212.18 215.708 211.172C215.708 210.206 215.798 209.35 215.979 208.604C216.16 207.855 216.423 207.224 216.768 206.713C217.112 206.198 217.527 205.808 218.014 205.541C218.504 205.275 219.056 205.142 219.671 205.142C220.281 205.142 220.825 205.264 221.301 205.509C221.78 205.751 222.171 206.088 222.472 206.521C222.774 206.955 222.97 207.454 223.058 208.018H221.759C221.638 207.528 221.404 207.122 221.056 206.798C220.708 206.475 220.246 206.314 219.671 206.314C218.825 206.314 218.16 206.681 217.673 207.416C217.19 208.151 216.947 209.183 216.943 210.511H217.029C217.227 210.209 217.464 209.952 217.737 209.739C218.014 209.522 218.319 209.355 218.653 209.238C218.987 209.121 219.34 209.062 219.713 209.062C220.338 209.062 220.91 209.218 221.428 209.531C221.947 209.84 222.362 210.268 222.675 210.815C222.987 211.358 223.144 211.981 223.144 212.684C223.144 213.359 222.993 213.977 222.691 214.538C222.389 215.096 221.965 215.539 221.418 215.87C220.874 216.196 220.235 216.356 219.5 216.349ZM219.5 215.177C219.948 215.177 220.349 215.065 220.704 214.842C221.063 214.618 221.345 214.318 221.551 213.941C221.76 213.565 221.865 213.146 221.865 212.684C221.865 212.233 221.764 211.823 221.562 211.454C221.363 211.081 221.087 210.785 220.736 210.564C220.388 210.344 219.99 210.234 219.543 210.234C219.205 210.234 218.891 210.302 218.6 210.437C218.309 210.568 218.053 210.749 217.833 210.98C217.616 211.211 217.446 211.475 217.322 211.774C217.197 212.068 217.135 212.379 217.135 212.706C217.135 213.139 217.236 213.544 217.439 213.92C217.645 214.297 217.925 214.6 218.28 214.831C218.639 215.062 219.046 215.177 219.5 215.177Z" fill="black"/>
<path opacity="0.5" d="M211.721 252V251.105L215.081 247.426C215.476 246.995 215.801 246.621 216.056 246.303C216.311 245.981 216.5 245.679 216.623 245.398C216.749 245.113 216.812 244.814 216.812 244.503C216.812 244.145 216.725 243.835 216.553 243.573C216.384 243.311 216.152 243.109 215.857 242.967C215.562 242.824 215.231 242.753 214.863 242.753C214.472 242.753 214.13 242.834 213.839 242.996C213.55 243.156 213.326 243.379 213.167 243.668C213.012 243.956 212.934 244.294 212.934 244.682H211.76C211.76 244.085 211.898 243.562 212.173 243.111C212.448 242.66 212.823 242.309 213.297 242.057C213.774 241.805 214.309 241.679 214.902 241.679C215.499 241.679 216.028 241.805 216.488 242.057C216.949 242.309 217.31 242.648 217.572 243.076C217.834 243.504 217.965 243.979 217.965 244.503C217.965 244.877 217.897 245.244 217.761 245.602C217.629 245.956 217.397 246.352 217.065 246.79C216.737 247.224 216.281 247.754 215.698 248.381L213.411 250.827V250.906H218.144V252H211.721Z" fill="black"/>
</g>
<g clip-path="url(#clip7_1_7)">
<path opacity="0.5" d="M251.163 65.4545C251.112 65.0227 250.904 64.6875 250.541 64.4489C250.177 64.2102 249.731 64.0909 249.203 64.0909C248.816 64.0909 248.478 64.1534 248.188 64.2784C247.902 64.4034 247.677 64.5753 247.515 64.794C247.356 65.0128 247.277 65.2614 247.277 65.5398C247.277 65.7727 247.332 65.973 247.443 66.1406C247.556 66.3054 247.701 66.4432 247.877 66.554C248.054 66.6619 248.238 66.7514 248.431 66.8224C248.625 66.8906 248.802 66.946 248.964 66.9886L249.85 67.2273C250.078 67.2869 250.331 67.3693 250.609 67.4744C250.89 67.5795 251.159 67.723 251.414 67.9048C251.673 68.0838 251.886 68.3139 252.054 68.5952C252.221 68.8764 252.305 69.2216 252.305 69.6307C252.305 70.1023 252.181 70.5284 251.934 70.9091C251.69 71.2898 251.332 71.5923 250.86 71.8168C250.392 72.0412 249.822 72.1534 249.152 72.1534C248.527 72.1534 247.985 72.0526 247.528 71.8509C247.073 71.6491 246.715 71.3679 246.454 71.0071C246.196 70.6463 246.049 70.2273 246.015 69.75H247.106C247.135 70.0795 247.245 70.3523 247.438 70.5682C247.635 70.7812 247.882 70.9403 248.18 71.0455C248.481 71.1477 248.805 71.1989 249.152 71.1989C249.555 71.1989 249.917 71.1335 250.238 71.0028C250.559 70.8693 250.813 70.6847 251.001 70.4489C251.188 70.2102 251.282 69.9318 251.282 69.6136C251.282 69.3239 251.201 69.0881 251.039 68.9062C250.877 68.7244 250.664 68.5767 250.4 68.4631C250.136 68.3494 249.85 68.25 249.544 68.1648L248.47 67.858C247.788 67.6619 247.248 67.3821 246.85 67.0185C246.453 66.6548 246.254 66.179 246.254 65.5909C246.254 65.1023 246.386 64.6761 246.65 64.3125C246.917 63.946 247.275 63.6619 247.724 63.4602C248.176 63.2557 248.68 63.1534 249.237 63.1534C249.799 63.1534 250.299 63.2543 250.737 63.456C251.174 63.6548 251.521 63.9276 251.777 64.2741C252.035 64.6207 252.171 65.0142 252.186 65.4545H251.163ZM254.4 72H253.293L256.497 63.2727H257.588L260.793 72H259.685L257.077 64.6534H257.008L254.4 72ZM254.81 68.5909H259.275V69.5284H254.81V68.5909ZM260.655 64.2102V63.2727H267.201V64.2102H264.456V72H263.399V64.2102H260.655Z" fill="black"/>
<path d="M256.585 105.949C256.137 105.942 255.69 105.857 255.242 105.693C254.795 105.53 254.387 105.255 254.017 104.868C253.648 104.477 253.351 103.95 253.128 103.286C252.904 102.618 252.792 101.78 252.792 100.772C252.792 99.8057 252.883 98.9498 253.064 98.2041C253.245 97.4548 253.508 96.8245 253.852 96.3131C254.197 95.7982 254.612 95.4076 255.099 95.1413C255.589 94.8749 256.141 94.7417 256.755 94.7417C257.366 94.7417 257.909 94.8643 258.385 95.1093C258.865 95.3508 259.255 95.6881 259.557 96.1214C259.859 96.5546 260.054 97.0535 260.143 97.6182H258.843C258.723 97.1281 258.488 96.7215 258.14 96.3984C257.792 96.0752 257.331 95.9136 256.755 95.9136C255.91 95.9136 255.244 96.2812 254.758 97.0163C254.275 97.7513 254.032 98.7829 254.028 100.111H254.113C254.312 99.8092 254.548 99.5518 254.822 99.3387C255.099 99.1221 255.404 98.9552 255.738 98.838C256.072 98.7208 256.425 98.6622 256.798 98.6622C257.423 98.6622 257.995 98.8185 258.513 99.131C259.032 99.4399 259.447 99.8678 259.76 100.415C260.072 100.958 260.228 101.581 260.228 102.284C260.228 102.959 260.077 103.577 259.775 104.138C259.474 104.696 259.049 105.139 258.502 105.47C257.959 105.796 257.32 105.956 256.585 105.949ZM256.585 104.777C257.032 104.777 257.434 104.665 257.789 104.442C258.147 104.218 258.43 103.918 258.636 103.541C258.845 103.165 258.95 102.746 258.95 102.284C258.95 101.833 258.849 101.423 258.646 101.054C258.447 100.681 258.172 100.385 257.821 100.164C257.473 99.9442 257.075 99.8341 256.627 99.8341C256.29 99.8341 255.976 99.9016 255.685 100.036C255.393 100.168 255.138 100.349 254.918 100.58C254.701 100.811 254.53 101.075 254.406 101.373C254.282 101.668 254.22 101.979 254.22 102.306C254.22 102.739 254.321 103.144 254.523 103.52C254.729 103.897 255.01 104.2 255.365 104.431C255.724 104.662 256.13 104.777 256.585 104.777Z" fill="black"/>
<path d="M253.298 131.691V142.6H251.977V133.076H251.913L249.25 134.844V133.502L251.977 131.691H253.298ZM260.121 142.749C259.418 142.749 258.791 142.628 258.241 142.387C257.694 142.145 257.259 141.81 256.936 141.38C256.616 140.947 256.442 140.444 256.414 139.873H257.756C257.785 140.224 257.905 140.528 258.119 140.784C258.332 141.036 258.61 141.231 258.955 141.37C259.299 141.508 259.681 141.577 260.1 141.577C260.569 141.577 260.984 141.496 261.347 141.332C261.709 141.169 261.993 140.942 262.199 140.65C262.405 140.359 262.508 140.022 262.508 139.638C262.508 139.237 262.408 138.884 262.209 138.578C262.011 138.269 261.719 138.028 261.336 137.854C260.952 137.68 260.484 137.593 259.93 137.593H259.056V136.421H259.93C260.363 136.421 260.743 136.343 261.07 136.187C261.4 136.03 261.657 135.81 261.842 135.526C262.03 135.242 262.124 134.908 262.124 134.525C262.124 134.155 262.043 133.834 261.879 133.561C261.716 133.287 261.485 133.074 261.187 132.921C260.892 132.769 260.544 132.692 260.143 132.692C259.766 132.692 259.411 132.762 259.077 132.9C258.747 133.035 258.477 133.232 258.268 133.491C258.058 133.747 257.945 134.056 257.927 134.418H256.648C256.67 133.846 256.842 133.346 257.165 132.916C257.488 132.483 257.911 132.145 258.433 131.904C258.958 131.663 259.535 131.542 260.164 131.542C260.839 131.542 261.418 131.678 261.9 131.952C262.383 132.222 262.755 132.579 263.014 133.023C263.273 133.466 263.403 133.946 263.403 134.461C263.403 135.075 263.241 135.599 262.918 136.032C262.598 136.465 262.163 136.765 261.613 136.932V137.018C262.302 137.131 262.84 137.424 263.227 137.897C263.614 138.365 263.807 138.946 263.807 139.638C263.807 140.231 263.646 140.764 263.323 141.236C263.003 141.705 262.566 142.074 262.012 142.344C261.458 142.614 260.828 142.749 260.121 142.749Z" fill="black"/>
<path d="M248.463 179.4V178.441L252.063 174.499C252.486 174.038 252.834 173.636 253.108 173.296C253.381 172.951 253.583 172.628 253.715 172.326C253.85 172.021 253.917 171.701 253.917 171.367C253.917 170.984 253.825 170.652 253.64 170.371C253.459 170.091 253.211 169.874 252.894 169.721C252.578 169.569 252.223 169.492 251.829 169.492C251.41 169.492 251.044 169.579 250.732 169.753C250.423 169.924 250.183 170.163 250.013 170.472C249.846 170.781 249.762 171.144 249.762 171.559H248.505C248.505 170.92 248.653 170.359 248.947 169.876C249.242 169.393 249.643 169.016 250.151 168.747C250.663 168.477 251.236 168.342 251.872 168.342C252.511 168.342 253.077 168.477 253.571 168.747C254.065 169.016 254.452 169.38 254.732 169.839C255.013 170.297 255.153 170.806 255.153 171.367C255.153 171.769 255.08 172.161 254.935 172.545C254.793 172.924 254.544 173.349 254.189 173.818C253.837 174.283 253.349 174.851 252.724 175.522L250.274 178.143V178.228H255.345V179.4H248.463ZM261.103 179.549C260.3 179.549 259.617 179.331 259.052 178.894C258.487 178.454 258.056 177.816 257.758 176.982C257.459 176.144 257.31 175.132 257.31 173.945C257.31 172.766 257.459 171.76 257.758 170.925C258.06 170.087 258.493 169.448 259.057 169.008C259.626 168.564 260.307 168.342 261.103 168.342C261.898 168.342 262.578 168.564 263.143 169.008C263.711 169.448 264.144 170.087 264.443 170.925C264.745 171.76 264.896 172.766 264.896 173.945C264.896 175.132 264.746 176.144 264.448 176.982C264.15 177.816 263.718 178.454 263.154 178.894C262.589 179.331 261.905 179.549 261.103 179.549ZM261.103 178.377C261.898 178.377 262.516 177.994 262.957 177.227C263.397 176.46 263.617 175.366 263.617 173.945C263.617 173.001 263.516 172.197 263.313 171.532C263.115 170.868 262.827 170.362 262.451 170.014C262.078 169.666 261.628 169.492 261.103 169.492C260.315 169.492 259.698 169.881 259.255 170.659C258.811 171.433 258.589 172.529 258.589 173.945C258.589 174.89 258.688 175.693 258.887 176.353C259.086 177.014 259.372 177.516 259.745 177.861C260.121 178.205 260.574 178.377 261.103 178.377Z" fill="black"/>
<path d="M248.963 216.2V215.241L252.563 211.299C252.986 210.838 253.334 210.437 253.608 210.096C253.881 209.751 254.083 209.428 254.215 209.126C254.35 208.821 254.417 208.501 254.417 208.167C254.417 207.784 254.325 207.452 254.14 207.171C253.959 206.891 253.711 206.674 253.394 206.521C253.078 206.369 252.723 206.292 252.329 206.292C251.91 206.292 251.544 206.379 251.232 206.553C250.923 206.724 250.683 206.963 250.513 207.272C250.346 207.581 250.262 207.944 250.262 208.359H249.005C249.005 207.72 249.153 207.159 249.447 206.676C249.742 206.193 250.143 205.816 250.651 205.547C251.163 205.277 251.736 205.142 252.372 205.142C253.011 205.142 253.577 205.277 254.071 205.547C254.565 205.816 254.952 206.18 255.232 206.639C255.513 207.097 255.653 207.606 255.653 208.167C255.653 208.569 255.58 208.961 255.435 209.345C255.293 209.724 255.044 210.149 254.689 210.618C254.337 211.083 253.849 211.651 253.224 212.322L250.774 214.943V215.028H255.845V216.2H248.963ZM258.386 216.2L263.265 206.548V206.463H257.64V205.291H264.628V206.527L259.771 216.2H258.386Z" fill="black"/>
<path opacity="0.5" d="M256.828 252.139C256.171 252.139 255.586 252.027 255.073 251.801C254.562 251.576 254.156 251.263 253.855 250.862C253.556 250.457 253.394 249.988 253.367 249.455H254.62C254.647 249.783 254.76 250.066 254.958 250.305C255.157 250.54 255.417 250.722 255.739 250.852C256.06 250.981 256.417 251.045 256.808 251.045C257.245 251.045 257.633 250.969 257.971 250.817C258.309 250.664 258.574 250.452 258.767 250.18C258.959 249.909 259.055 249.594 259.055 249.236C259.055 248.861 258.962 248.531 258.777 248.246C258.591 247.958 258.319 247.733 257.961 247.57C257.603 247.408 257.166 247.327 256.649 247.327H255.833V246.233H256.649C257.053 246.233 257.408 246.16 257.713 246.014C258.021 245.868 258.261 245.663 258.434 245.398C258.609 245.133 258.697 244.821 258.697 244.463C258.697 244.118 258.621 243.818 258.468 243.563C258.316 243.308 258.1 243.109 257.822 242.967C257.547 242.824 257.222 242.753 256.848 242.753C256.496 242.753 256.165 242.817 255.853 242.947C255.545 243.073 255.293 243.257 255.098 243.499C254.902 243.737 254.796 244.026 254.779 244.364H253.586C253.606 243.83 253.767 243.363 254.068 242.962C254.37 242.557 254.764 242.242 255.252 242.017C255.742 241.792 256.281 241.679 256.867 241.679C257.497 241.679 258.037 241.807 258.488 242.062C258.939 242.314 259.285 242.647 259.527 243.061C259.769 243.475 259.89 243.923 259.89 244.403C259.89 244.977 259.739 245.466 259.438 245.87C259.139 246.274 258.733 246.554 258.22 246.71V246.79C258.863 246.896 259.365 247.169 259.726 247.61C260.087 248.048 260.268 248.589 260.268 249.236C260.268 249.789 260.117 250.286 259.816 250.727C259.517 251.165 259.11 251.509 258.593 251.761C258.076 252.013 257.487 252.139 256.828 252.139Z" fill="black"/>
</g>
<g clip-path="url(#clip8_1_7)">
<path opacity="0.5" d="M294.83 65.4545C294.778 65.0227 294.571 64.6875 294.207 64.4489C293.844 64.2102 293.398 64.0909 292.869 64.0909C292.483 64.0909 292.145 64.1534 291.855 64.2784C291.568 64.4034 291.344 64.5753 291.182 64.794C291.023 65.0128 290.943 65.2614 290.943 65.5398C290.943 65.7727 290.999 65.973 291.109 66.1406C291.223 66.3054 291.368 66.4432 291.544 66.554C291.72 66.6619 291.905 66.7514 292.098 66.8224C292.291 66.8906 292.469 66.946 292.631 66.9886L293.517 67.2273C293.744 67.2869 293.997 67.3693 294.276 67.4744C294.557 67.5795 294.825 67.723 295.081 67.9048C295.339 68.0838 295.553 68.3139 295.72 68.5952C295.888 68.8764 295.972 69.2216 295.972 69.6307C295.972 70.1023 295.848 70.5284 295.601 70.9091C295.357 71.2898 294.999 71.5923 294.527 71.8168C294.058 72.0412 293.489 72.1534 292.818 72.1534C292.193 72.1534 291.652 72.0526 291.195 71.8509C290.74 71.6491 290.382 71.3679 290.121 71.0071C289.862 70.6463 289.716 70.2273 289.682 69.75H290.773C290.801 70.0795 290.912 70.3523 291.105 70.5682C291.301 70.7812 291.548 70.9403 291.847 71.0455C292.148 71.1477 292.472 71.1989 292.818 71.1989C293.222 71.1989 293.584 71.1335 293.905 71.0028C294.226 70.8693 294.48 70.6847 294.668 70.4489C294.855 70.2102 294.949 69.9318 294.949 69.6136C294.949 69.3239 294.868 69.0881 294.706 68.9062C294.544 68.7244 294.331 68.5767 294.067 68.4631C293.803 68.3494 293.517 68.25 293.21 68.1648L292.136 67.858C291.455 67.6619 290.915 67.3821 290.517 67.0185C290.119 66.6548 289.92 66.179 289.92 65.5909C289.92 65.1023 290.053 64.6761 290.317 64.3125C290.584 63.946 290.942 63.6619 291.391 63.4602C291.842 63.2557 292.347 63.1534 292.903 63.1534C293.466 63.1534 293.966 63.2543 294.403 63.456C294.841 63.6548 295.188 63.9276 295.443 64.2741C295.702 64.6207 295.838 65.0142 295.852 65.4545H294.83ZM303.436 63.2727H304.493V69.0511C304.493 69.6477 304.353 70.1804 304.071 70.6491C303.793 71.1151 303.4 71.483 302.891 71.7528C302.382 72.0199 301.786 72.1534 301.101 72.1534C300.417 72.1534 299.82 72.0199 299.311 71.7528C298.803 71.483 298.408 71.1151 298.127 70.6491C297.848 70.1804 297.709 69.6477 297.709 69.0511V63.2727H298.766V68.9659C298.766 69.392 298.86 69.7713 299.047 70.1037C299.235 70.4332 299.502 70.6932 299.848 70.8835C300.198 71.071 300.615 71.1648 301.101 71.1648C301.587 71.1648 302.005 71.071 302.354 70.8835C302.703 70.6932 302.971 70.4332 303.155 70.1037C303.343 69.7713 303.436 69.392 303.436 68.9659V63.2727ZM313.524 63.2727V72H312.501L307.746 65.1477H307.661V72H306.604V63.2727H307.626L312.399 70.142H312.484V63.2727H313.524Z" fill="black"/>
<path d="M298.97 105.8L303.849 96.148V96.0628H298.224V94.8909H305.213V96.1267L300.355 105.8H298.97Z" fill="black"/>
<path d="M298.464 131.691V142.6H297.143V133.076H297.08L294.416 134.844V133.502L297.143 131.691H298.464ZM301.346 140.363V139.276L306.14 131.691H306.929V133.374H306.396L302.774 139.106V139.191H309.23V140.363H301.346ZM306.481 142.6V140.033V139.526V131.691H307.738V142.6H306.481Z" fill="black"/>
<path d="M294.629 179.4V178.441L298.23 174.499C298.653 174.038 299.001 173.636 299.274 173.296C299.548 172.951 299.75 172.628 299.881 172.326C300.016 172.021 300.084 171.701 300.084 171.367C300.084 170.984 299.991 170.652 299.807 170.371C299.626 170.091 299.377 169.874 299.061 169.721C298.745 169.569 298.39 169.492 297.996 169.492C297.577 169.492 297.211 169.579 296.898 169.753C296.589 169.924 296.35 170.163 296.179 170.472C296.012 170.781 295.929 171.144 295.929 171.559H294.672C294.672 170.92 294.819 170.359 295.114 169.876C295.409 169.393 295.81 169.016 296.318 168.747C296.829 168.477 297.403 168.342 298.038 168.342C298.678 168.342 299.244 168.477 299.738 168.747C300.231 169.016 300.618 169.38 300.899 169.839C301.179 170.297 301.32 170.806 301.32 171.367C301.32 171.769 301.247 172.161 301.101 172.545C300.959 172.924 300.711 173.349 300.355 173.818C300.004 174.283 299.516 174.851 298.891 175.522L296.44 178.143V178.228H301.511V179.4H294.629ZM307.547 168.491V179.4H306.225V169.876H306.162L303.498 171.644V170.302L306.225 168.491H307.547Z" fill="black"/>
<path d="M293.629 216.2V215.241L297.23 211.299C297.653 210.838 298.001 210.437 298.274 210.096C298.548 209.751 298.75 209.428 298.881 209.126C299.016 208.821 299.084 208.501 299.084 208.167C299.084 207.784 298.991 207.452 298.807 207.171C298.626 206.891 298.377 206.674 298.061 206.521C297.745 206.369 297.39 206.292 296.996 206.292C296.577 206.292 296.211 206.379 295.898 206.553C295.589 206.724 295.35 206.963 295.179 207.272C295.012 207.581 294.929 207.944 294.929 208.359H293.672C293.672 207.72 293.819 207.159 294.114 206.676C294.409 206.193 294.81 205.816 295.318 205.547C295.829 205.277 296.403 205.142 297.038 205.142C297.678 205.142 298.244 205.277 298.738 205.547C299.231 205.816 299.618 206.18 299.899 206.639C300.179 207.097 300.32 207.606 300.32 208.167C300.32 208.569 300.247 208.961 300.101 209.345C299.959 209.724 299.711 210.149 299.355 210.618C299.004 211.083 298.516 211.651 297.891 212.322L295.44 214.943V215.028H300.511V216.2H293.629ZM306.206 216.349C305.474 216.349 304.828 216.22 304.267 215.96C303.709 215.698 303.274 215.337 302.962 214.879C302.649 214.417 302.495 213.892 302.498 213.302C302.495 212.841 302.585 212.414 302.77 212.024C302.955 211.63 303.207 211.301 303.526 211.038C303.849 210.772 304.21 210.603 304.608 210.532V210.468C304.086 210.334 303.67 210.041 303.361 209.59C303.052 209.135 302.9 208.618 302.903 208.039C302.9 207.486 303.04 206.99 303.324 206.553C303.608 206.117 303.999 205.772 304.496 205.52C304.996 205.268 305.566 205.142 306.206 205.142C306.838 205.142 307.402 205.268 307.9 205.52C308.397 205.772 308.787 206.117 309.071 206.553C309.359 206.99 309.505 207.486 309.508 208.039C309.505 208.618 309.347 209.135 309.034 209.59C308.725 210.041 308.315 210.334 307.804 210.468V210.532C308.198 210.603 308.553 210.772 308.869 211.038C309.185 211.301 309.437 211.63 309.625 212.024C309.814 212.414 309.909 212.841 309.913 213.302C309.909 213.892 309.75 214.417 309.434 214.879C309.121 215.337 308.686 215.698 308.129 215.96C307.575 216.22 306.934 216.349 306.206 216.349ZM306.206 215.177C306.699 215.177 307.125 215.097 307.484 214.938C307.843 214.778 308.12 214.552 308.315 214.261C308.51 213.97 308.61 213.629 308.613 213.238C308.61 212.826 308.503 212.462 308.294 212.146C308.084 211.83 307.798 211.582 307.436 211.401C307.077 211.22 306.667 211.129 306.206 211.129C305.74 211.129 305.325 211.22 304.959 211.401C304.597 211.582 304.311 211.83 304.102 212.146C303.896 212.462 303.794 212.826 303.798 213.238C303.794 213.629 303.888 213.97 304.08 214.261C304.276 214.552 304.554 214.778 304.917 214.938C305.279 215.097 305.708 215.177 306.206 215.177ZM306.206 210C306.596 210 306.942 209.922 307.244 209.765C307.55 209.609 307.789 209.391 307.963 209.11C308.137 208.83 308.226 208.501 308.23 208.125C308.226 207.755 308.139 207.434 307.969 207.161C307.798 206.884 307.562 206.671 307.26 206.521C306.958 206.369 306.607 206.292 306.206 206.292C305.797 206.292 305.44 206.369 305.135 206.521C304.83 206.671 304.593 206.884 304.426 207.161C304.26 207.434 304.178 207.755 304.181 208.125C304.178 208.501 304.261 208.83 304.432 209.11C304.606 209.391 304.846 209.609 305.151 209.765C305.456 209.922 305.808 210 306.206 210Z" fill="black"/>
<path opacity="0.5" d="M298.315 249.912V248.898L302.79 241.818H303.526V243.389H303.028L299.648 248.739V248.818H305.673V249.912H298.315ZM303.108 252V249.604V249.131V241.818H304.281V252H303.108Z" fill="black"/>
</g>
</g>
<defs>
<clipPath id="clip0_1_7">
<rect width="299" height="24" fill="white" transform="translate(16 16)"/>
</clipPath>
<clipPath id="clip1_1_7">
<rect width="299" height="197" fill="white" transform="translate(16 60)"/>
</clipPath>
<clipPath id="clip2_1_7">
<rect width="29" height="197" fill="white" transform="translate(16 60)"/>
</clipPath>
<clipPath id="clip3_1_7">
<rect width="24" height="197" fill="white" transform="translate(65.6667 60)"/>
</clipPath>
<clipPath id="clip4_1_7">
<rect width="28" height="197" fill="white" transform="translate(110.333 60)"/>
</clipPath>
<clipPath id="clip5_1_7">
<rect width="26" height="197" fill="white" transform="translate(159 60)"/>
</clipPath>
<clipPath id="clip6_1_7">
<rect width="19" height="197" fill="white" transform="translate(205.667 60)"/>
</clipPath>
<clipPath id="clip7_1_7">
<rect width="23" height="197" fill="white" transform="translate(245.333 60)"/>
</clipPath>
<clipPath id="clip8_1_7">
<rect width="26" height="197" fill="white" transform="translate(289 60)"/>
</clipPath>
</defs>
</svg>
