<svg width="27" height="24" viewBox="0 0 27 24" fill="none" xmlns="http://www.w3.org/2000/svg">
<path d="M15.75 21H0.75C0.335625 21 0 21.3356 0 21.75V23.25C0 23.6644 0.335625 24 0.75 24H15.75C16.1644 24 16.5 23.6644 16.5 23.25V21.75C16.5 21.3356 16.1644 21 15.75 21ZM25.5 6V3.75C25.5 3.33562 25.1644 3 24.75 3C24.3356 3 24 3.33562 24 3.75V6H22.5V3.75C22.5 3.33562 22.1644 3 21.75 3C21.3356 3 21 3.33562 21 3.75V6H20.25C19.8356 6 19.5 6.33563 19.5 6.75V8.25C19.5 9.92625 20.6072 11.3292 22.125 11.8092V17.3634C22.125 18.0173 21.6797 18.6253 21.0347 18.7317C20.2134 18.8672 19.5 18.2339 19.5 17.4375V16.125C19.5 13.8469 17.6531 12 15.375 12H15V3C15 1.34297 13.657 0 12 0H4.5C2.84297 0 1.5 1.34297 1.5 3V19.5H15V14.25H15.375C16.4105 14.25 17.25 15.0895 17.25 16.125V17.2786C17.25 19.1381 18.6056 20.8017 20.4567 20.9822C22.5802 21.1898 24.375 19.5192 24.375 17.4375V11.8092C25.8928 11.3292 27 9.92625 27 8.25V6.75C27 6.33563 26.6644 6 26.25 6H25.5ZM12.1917 8.23875L7.79953 14.7544C7.69641 14.9105 7.50844 15 7.3125 15C6.95297 15 6.68109 14.7056 6.76547 14.3944L7.84453 10.5H5.0625C4.72266 10.5 4.46016 10.238 4.50516 9.94266L5.25516 4.92703C5.29219 4.68281 5.53031 4.5 5.8125 4.5H9C9.36938 4.5 9.63844 4.80656 9.54375 5.11922L9 7.5H11.7047C12.1378 7.5 12.4083 7.91156 12.1917 8.23875Z" fill="#20419A"/>
</svg>
